<svg width="100" height="100" xmlns="http://www.w3.org/2000/svg">
  <defs>
    <pattern id="topo-pattern" patternUnits="userSpaceOnUse" width="100" height="100">
      <path d="M0,20 C20,10 40,30 60,20 C80,10 100,30 100,20" fill="none" stroke="white" stroke-width="0.5" />
      <path d="M0,40 C20,30 40,50 60,40 C80,30 100,50 100,40" fill="none" stroke="white" stroke-width="0.5" />
      <path d="M0,60 C20,50 40,70 60,60 C80,50 100,70 100,60" fill="none" stroke="white" stroke-width="0.5" />
      <path d="M0,80 C20,70 40,90 60,80 C80,70 100,90 100,80" fill="none" stroke="white" stroke-width="0.5" />
    </pattern>
  </defs>
  <rect width="100" height="100" fill="url(#topo-pattern)" />
</svg> 